<?xml version="1.0" encoding="UTF-8" standalone="no"?>
<svg width="506px" height="505px" viewBox="0 0 506 505" version="1.1" xmlns="http://www.w3.org/2000/svg" xmlns:xlink="http://www.w3.org/1999/xlink">
    <!-- Generator: Sketch 40.3 (33839) - http://www.bohemiancoding.com/sketch -->
    <title>Group 9</title>
    <desc>Created with Sketch.</desc>
    <defs></defs>
    <g id="Page-1" stroke="none" stroke-width="1" fill="none" fill-rule="evenodd">
        <g id="Group-9">
            <g id="Group-8">
                <g id="Group-7">
                    <g id="Group-6">
                        <g id="Group-5">
                            <g id="Group-4">
                                <g id="Group-3">
                                    <g id="Group-2">
                                        <g id="Group">
                                            <path d="M252.849,0.59 C113.822,0.59 0.788,113.624 0.788,252.651 C0.788,391.678 113.822,504.714 252.85,504.714 C391.878,504.714 504.911,391.68 504.911,252.651 C505.305,113.624 392.271,0.59 252.849,0.59 L252.849,0.59 Z M252.849,347.174 C200.467,347.174 158.326,305.032 158.326,252.651 C158.326,200.27 200.468,158.128 252.849,158.128 C305.23,158.128 347.372,200.27 347.372,252.651 C347.766,305.034 305.231,347.174 252.849,347.174 L252.849,347.174 Z" id="Shape" fill="#E89C25"></path>
                                            <path d="M276.874,488.96 C133.514,488.96 17.329,372.775 17.329,229.415 C17.329,184.91 28.357,143.163 48.049,106.929 C18.511,147.888 1.181,198.3 1.181,252.651 C1.181,391.679 114.215,504.713 253.243,504.713 C307.988,504.713 358.4,487.384 399.36,457.845 C362.732,477.538 320.985,488.96 276.874,488.96 L276.874,488.96 Z" id="Shape" fill="#CC8921"></path>
                                            <path d="M252.849,138.436 C189.834,138.436 138.634,189.636 138.634,252.651 C138.634,315.666 189.834,366.866 252.849,366.866 C315.864,366.866 367.064,315.666 367.064,252.651 C367.064,189.636 316.258,138.436 252.849,138.436 L252.849,138.436 Z M252.849,347.174 C200.467,347.174 158.326,305.032 158.326,252.651 C158.326,200.27 200.468,158.128 252.849,158.128 C305.23,158.128 347.372,200.27 347.372,252.651 C347.766,305.034 305.231,347.174 252.849,347.174 L252.849,347.174 Z" id="Shape" fill="#D69022"></path>
                                            <path d="M503.335,283.766 C504.517,273.526 505.304,263.286 505.304,253.046 C505.304,212.48 495.852,174.277 478.522,140.406 C437.169,57.697 351.705,0.984 253.243,0.984 C114.215,0.984 1.182,114.017 1.182,253.046 L1.576,268.406 C12.21,268.012 23.238,267.224 33.478,265.255 C104.37,252.258 111.066,231.778 166.598,215.237 C181.17,182.154 214.647,158.917 253.244,158.917 C305.626,158.917 347.767,201.059 347.767,253.44 L347.767,255.803 C391.089,280.221 487.975,283.372 503.335,283.766 L503.335,283.766 Z" id="Shape" fill="#F8BEB6"></path>
                                            <path d="M105.551,150.645 L75.225,158.916 C69.711,160.491 66.56,166.793 68.136,173.094 C69.711,179.396 75.619,183.334 81.133,181.759 L111.459,173.488 C116.973,171.913 120.124,165.611 118.548,159.31 C116.972,153.008 111.065,149.07 105.551,150.645 L105.551,150.645 Z M434.018,190.424 C434.018,183.335 428.898,177.821 422.203,177.821 C415.508,177.821 410.388,183.335 410.388,190.424 L410.388,220.356 C410.388,227.445 415.508,232.959 422.203,232.959 C428.898,232.959 434.018,227.445 434.018,220.356 L434.018,190.424 L434.018,190.424 Z" id="Shape" fill="#26A6D1"></path>
                                            <path d="M184.714,65.181 C179.594,62.03 173.292,63.606 170.536,68.726 L155.964,97.477 C153.207,102.597 155.176,109.686 160.296,112.837 C165.416,115.988 171.718,114.412 174.474,109.292 L189.046,80.541 C191.409,75.421 189.834,68.725 184.714,65.181 L184.714,65.181 Z" id="Shape" fill="#53BCA9"></path>
                                            <path d="M356.825,121.501 L385.576,104.959 C390.696,101.808 397.785,103.777 400.936,109.291 C404.087,114.805 402.118,121.5 396.998,124.651 L368.247,141.193 C363.127,144.344 356.038,142.375 352.887,136.861 C349.735,131.348 351.705,124.257 356.825,121.501 L356.825,121.501 Z" id="Shape" fill="#E2574C"></path>
                                            <path d="M187.147901,417.257499 L356.554161,349.188472 C386.722157,336.222355 428.491868,344.324635 447.058148,367.014311 C465.624429,389.703987 454.022713,417.253384 423.854717,430.219501 L254.448458,498.288528 C224.280462,511.254645 182.51075,503.152365 163.94447,480.462689 C145.372298,457.777128 156.979905,428.598222 187.147901,417.257499 L187.147901,417.257499 Z" id="Shape" fill="#FFFFFF"></path>
                                            <path d="M288.689,89.993 L261.907,73.058 C257.181,69.907 255.212,63.212 257.969,57.698 C260.726,52.184 267.027,50.609 272.147,53.76 L298.929,70.695 C303.655,73.846 305.624,80.541 302.867,86.055 C300.111,91.174 293.809,92.75 288.689,89.993 L288.689,89.993 Z" id="Shape" fill="#FFFFFF"></path>
                                        </g>
                                    </g>
                                </g>
                            </g>
                        </g>
                    </g>
                </g>
            </g>
        </g>
    </g>
</svg>