<?xml version="1.0" encoding="UTF-8" standalone="no"?>
<svg width="419px" height="505px" viewBox="0 0 419 505" version="1.1" xmlns="http://www.w3.org/2000/svg" xmlns:xlink="http://www.w3.org/1999/xlink">
    <!-- Generator: Sketch 40.3 (33839) - http://www.bohemiancoding.com/sketch -->
    <title>Group 4</title>
    <desc>Created with Sketch.</desc>
    <defs></defs>
    <g id="Page-1" stroke="none" stroke-width="1" fill="none" fill-rule="evenodd">
        <g id="Group-4">
            <g id="Group-3">
                <g id="Group-2">
                    <g id="Group">
                        <g id="user">
                            <path d="M96.709,43.504 C115.22,43.504 130.186,58.47 130.186,76.587 L130.186,116.365 C130.186,134.876 115.22,149.448 96.709,149.448 C78.198,149.448 63.232,134.876 63.232,116.759 L63.232,76.588 C63.232,58.471 78.198,43.504 96.709,43.504 L96.709,43.504 Z" id="Shape" fill="#CC6D41"></path>
                            <path d="M417.694,464.92 L417.694,480.674 C417.694,493.671 407.06,504.305 394.063,504.305 L23.848,504.305 C10.851,504.305 0.217,493.671 0.217,480.674 L0.217,372.366 C0.217,323.529 39.602,284.144 88.045,284.144 L330.26,284.144 C378.703,284.144 418.088,323.529 418.088,372.366 C418.088,372.366 417.694,464.92 417.694,464.92 L417.694,464.92 Z" id="Shape" fill="#324D5B"></path>
                            <path d="M21.091,504.304 L31.331,504.304 L31.331,369.215 C31.725,327.073 62.445,291.627 103.011,284.144 L88.045,284.144 C39.602,284.144 0.217,323.529 0.217,372.366 L0.217,480.674 C0.217,492.883 9.275,502.729 21.091,504.304 L21.091,504.304 Z" id="Shape" fill="#2B424D"></path>
                            <path d="M157.361,189.228 L260.155,189.228 C303.872,189.228 338.924,224.674 338.924,267.997 C338.924,311.32 303.872,346.766 260.549,346.766 L157.361,346.766 C114.038,346.766 78.986,311.32 78.986,267.997 C78.986,224.674 114.038,189.228 157.361,189.228 L157.361,189.228 Z" id="Shape" fill="#5B717C"></path>
                            <path d="M166.814,23.812 L251.491,23.812 C293.239,23.812 327.109,57.683 327.109,99.824 L327.109,251.455 C327.109,293.203 293.238,327.073 251.097,327.073 L166.814,327.073 C124.672,327.073 90.802,293.202 90.802,251.455 L90.802,99.824 C90.801,57.683 124.672,23.812 166.814,23.812 L166.814,23.812 Z" id="Shape" fill="#E9AD9A"></path>
                            <path d="M196.352,250.667 C190.444,250.667 183.749,247.91 183.749,238.064 C183.749,229.793 208.955,208.526 208.955,199.861 L208.955,102.581 L90.801,102.581 L90.801,251.455 C90.801,293.203 124.672,327.073 166.813,327.073 L208.955,327.073 L208.955,250.667 L196.352,250.667 L196.352,250.667 L196.352,250.667 Z" id="Shape" fill="#D49F8F"></path>
                            <path d="M285.755,138.028 L250.309,138.028 C244.795,138.028 240.463,142.36 240.463,147.874 C240.463,153.388 244.795,157.72 250.309,157.72 L285.755,157.72 C291.269,157.72 295.601,153.388 295.601,147.874 C295.601,142.36 291.269,138.028 285.755,138.028 L285.755,138.028 Z M167.601,138.028 L132.155,138.028 C126.641,138.028 122.309,142.36 122.309,147.874 C122.309,153.388 126.641,157.72 132.155,157.72 L167.601,157.72 C173.115,157.72 177.447,153.388 177.447,147.874 C177.447,142.36 173.115,138.028 167.601,138.028 L167.601,138.028 Z" id="Shape" fill="#828282"></path>
                            <path d="M149.878,177.412 C141.213,177.412 134.124,184.501 134.124,193.166 C134.124,201.831 141.213,208.92 149.878,208.92 C158.543,208.92 165.632,201.831 165.632,193.166 C165.632,184.501 158.543,177.412 149.878,177.412 L149.878,177.412 Z M268.032,177.412 C259.367,177.412 252.278,184.501 252.278,193.166 C252.278,201.831 259.367,208.92 268.032,208.92 C276.697,208.92 283.786,201.831 283.786,193.166 C283.786,184.501 276.697,177.412 268.032,177.412 L268.032,177.412 Z" id="Shape" fill="#324D5B"></path>
                            <path d="M94.74,26.175 C182.174,-6.12 355.466,0.575 355.466,0.575 C368.857,0.575 374.371,8.846 374.371,19.48 C374.371,74.618 338.531,102.188 323.959,102.188 L88.439,102.188 C71.897,102.188 63.233,88.01 63.233,70.286 C63.232,57.683 70.715,35.628 94.74,26.175 L94.74,26.175 Z" id="Shape" fill="#E37948"></path>
                            <path d="M335.774,90.766 L100.254,90.766 C83.712,90.766 75.048,76.588 75.048,58.864 C75.048,51.381 77.411,41.141 83.713,32.082 C68.353,42.716 63.233,59.651 63.233,70.679 C63.233,88.402 71.898,102.581 88.439,102.581 L323.959,102.581 C331.048,102.581 343.651,95.886 354.285,82.495 C347.195,88.009 340.5,90.766 335.774,90.766 L335.774,90.766 Z" id="Shape" fill="#CC6D41"></path>
                        </g>
                        <text id="Build-me-my-dream!" font-family="AmericanTypewriter-Bold, American Typewriter" font-size="24" font-weight="bold" fill="#FFFFFF">
                            <tspan x="86.248" y="413">Build me my dream!</tspan>
                        </text>
                    </g>
                </g>
            </g>
        </g>
    </g>
</svg>